PathFileType	4	(X/Y/Z)	s08c0402.trc
DataRate	CameraRate	NumFrames	NumMarkers	Units	OrigDataRate	OrigDataStartFrame	OrigNumFrames
200	200	4	50	mm	200	1250	2000
Frame#	Time	racr			lacr			c7			jug			rlel			rdr			llel			ldr			s2			lic			ric			lasi			rasi			rpsi			lpsi			rgt			lgt			rth1			rth2			rth3			rth4			rlfc			rmfc			rsh1			rsh2			rsh3			rsh4			rlmal			rmmal			rcal			rtoe			rmt5			lth1			lth2			lth4			lth3			llfc			lmfc			llmal			lmmal			lcal			lmt5			lsh1			lsh2			lsh3			lsh4			ltoe			SBIKE			LBIKE			RBIKE			
		X1	Y1	Z1	X2	Y2	Z2	X3	Y3	Z3	X4	Y4	Z4	X5	Y5	Z5	X6	Y6	Z6	X7	Y7	Z7	X8	Y8	Z8	X9	Y9	Z9	X10	Y10	Z10	X11	Y11	Z11	X12	Y12	Z12	X13	Y13	Z13	X14	Y14	Z14	X15	Y15	Z15	X16	Y16	Z16	X17	Y17	Z17	X18	Y18	Z18	X19	Y19	Z19	X20	Y20	Z20	X21	Y21	Z21	X22	Y22	Z22	X23	Y23	Z23	X24	Y24	Z24	X25	Y25	Z25	X26	Y26	Z26	X27	Y27	Z27	X28	Y28	Z28	X29	Y29	Z29	X30	Y30	Z30	X31	Y31	Z31	X32	Y32	Z32	X33	Y33	Z33	X34	Y34	Z34	X35	Y35	Z35	X36	Y36	Z36	X37	Y37	Z37	X38	Y38	Z38	X39	Y39	Z39	X40	Y40	Z40	X41	Y41	Z41	X42	Y42	Z42	X43	Y43	Z43	X44	Y44	Z44	X45	Y45	Z45	X46	Y46	Z46	X47	Y47	Z47	X48	Y48	Z48	X49	Y49	Z49	X50	Y50	Z50	
1250	6.2500	834.794348	1406.127486	-183.251953	844.571194	1308.693421	-510.304766	827.145758	1424.206454	-358.460470	779.994945	1271.906224	-336.756166	741.714628	1217.890294	8.465241	775.488149	933.687755	-54.930849	639.163442	1107.932349	-611.690792	766.081416	927.489617	-460.629247	260.975272	1258.166530	-243.597727	383.669566	1230.096583	-410.281066	444.509184	1243.018535	-98.679542	422.089517	1195.791129	-366.238976	443.237965	1167.797873	-121.923054	305.378918	1293.825206	-192.179553	293.171347	1298.136821	-284.835859	318.842891	1137.222482	-61.349200	353.792171	1137.796529	-431.266980	336.822670	966.533507	-44.408177	359.494638	880.671595	-42.980552	339.356367	796.607465	-51.402874	395.905862	881.473490	-44.878845	343.661596	674.615042	-60.376118	331.733393	661.997764	-170.611802	252.687601	575.960108	-26.988454	235.887677	488.923405	-43.001497	179.425376	424.311129	-48.829207	267.317893	477.689578	-66.761749	120.668092	315.408361	-54.756408	184.373871	356.848969	-148.706825	48.426064	331.712491	-105.408443	280.531507	145.257864	-104.460769	190.328185	172.255667	-38.786146	438.322152	1040.932216	-433.197428	517.524583	1001.134230	-431.173855	532.982342	1031.877865	-443.049431	564.929590	925.287814	-427.790990	630.290543	816.592406	-400.047260	625.734763	793.713571	-291.144734	310.751255	553.894436	-398.725813	337.221700	561.349264	-309.935391	228.376529	550.031940	-360.274303	412.544775	442.975405	-426.653644	545.511543	725.312832	-419.523756	490.156748	661.970430	-400.406336	410.063032	625.722874	-404.524412	503.299312	648.212098	-362.200875	499.216636	452.022610	-359.814074	-145.617941	938.986906	-228.942723	10.664332	79.962272	-427.175731	10.595357	80.096849	-28.642322	
1251	6.2550	834.227808	1405.074873	-183.339528	845.387377	1305.695687	-509.710293	827.576145	1422.786945	-358.843173	779.492465	1270.796172	-337.025481	739.423287	1217.859501	8.974489	775.275214	934.077108	-54.654864	638.502686	1106.893721	-612.571180	765.344182	927.429384	-460.734668	260.210755	1259.679441	-244.263080	383.134906	1229.524963	-410.689866	443.882171	1245.492675	-98.665135	421.282140	1195.904294	-366.500833	444.129082	1170.241169	-121.567011	304.983076	1294.646488	-193.692634	293.048261	1299.668641	-285.764826	319.746054	1138.875954	-60.821129	352.520823	1137.723871	-431.219602	343.036478	966.712502	-44.654079	368.103895	881.648610	-43.621637	349.748486	797.033218	-51.324602	404.373538	883.480661	-46.494351	355.976572	675.237790	-59.275548	342.851970	663.640512	-169.481978	261.954745	579.791513	-25.883912	241.486989	493.548264	-42.637883	182.401811	431.457477	-48.327612	272.232783	481.343347	-66.743868	119.313161	324.814156	-54.512393	180.638807	361.321744	-148.597796	47.522685	343.781743	-105.454560	272.207848	148.377218	-104.193623	183.268656	179.232504	-38.507978	437.053826	1039.977136	-433.172588	512.889762	1000.894739	-436.659659	530.949845	1030.219401	-444.601033	562.290530	923.182950	-428.022758	626.263076	814.072395	-400.483927	621.934983	791.130919	-293.114311	314.190174	544.189065	-399.924414	340.825604	552.017106	-309.729610	232.285616	537.312657	-359.760173	419.543691	436.205299	-426.899951	543.336425	720.349638	-420.610947	490.093300	655.717874	-400.561812	411.146227	616.884428	-404.375094	503.679774	642.952570	-362.588993	505.971722	447.956544	-359.979180	-145.544574	939.087872	-229.035045	10.638701	79.986761	-427.178205	10.625178	80.332149	-28.488963	
1252	6.2600	833.579927	1404.410929	-183.189886	846.346255	1302.865554	-508.965914	827.923432	1421.456627	-359.155141	779.242619	1269.708045	-336.987227	737.211322	1217.934511	9.480483	775.089730	934.308819	-54.246457	637.836110	1106.073118	-613.225889	764.826738	927.542508	-460.638240	260.262552	1261.250968	-245.263626	382.717406	1228.893859	-411.152404	443.206905	1247.680192	-98.850841	420.519083	1195.904154	-366.815138	443.042495	1172.663236	-122.672274	304.394636	1297.996473	-194.691547	291.986762	1301.597836	-286.502658	321.092370	1140.295261	-60.109244	351.391841	1137.873976	-431.336422	349.672130	967.103003	-45.072919	377.373330	882.671460	-44.612989	360.868439	797.575062	-51.595982	413.404474	885.420411	-49.051253	368.854150	675.941370	-58.466525	354.628519	665.100731	-168.468110	272.099542	583.619452	-24.984313	248.249298	498.523948	-42.412212	186.848579	438.611851	-47.813547	278.369110	485.394648	-66.709462	119.703350	334.505833	-54.131575	177.367397	366.070211	-148.545434	48.521303	356.572485	-105.363781	264.177733	151.301629	-104.110516	176.761894	186.340698	-38.416499	435.089977	1039.643335	-434.341192	509.264658	1000.268628	-439.923132	529.158045	1028.791574	-445.397952	559.529226	921.586539	-429.007647	622.487845	811.712561	-401.487044	618.638216	789.314015	-293.334053	318.120404	533.785225	-399.808928	344.704904	542.314672	-309.802641	236.545562	524.933182	-359.437213	426.208497	428.693054	-427.038232	541.389586	715.646763	-421.378979	490.215147	649.075899	-400.343837	412.684673	608.137450	-404.478047	504.683410	638.585633	-365.131902	512.424882	442.768195	-360.441124	-145.447693	939.165873	-229.129053	10.655361	80.020094	-427.171925	10.623451	80.476654	-28.476856	
1253	6.2650	832.911648	1404.019704	-182.713885	847.275336	1300.157080	-507.813792	828.375011	1420.112586	-359.947362	778.891200	1268.716962	-337.161587	735.098514	1218.196115	10.031197	775.049811	934.455302	-53.921615	637.262234	1105.470850	-613.710558	764.466476	927.874069	-460.405173	260.075794	1262.475728	-246.273146	382.416934	1228.199653	-411.664032	442.524409	1249.724764	-99.099184	419.803961	1195.778511	-367.180981	443.185109	1174.941866	-123.215509	304.258626	1298.632807	-195.843276	291.115152	1303.081221	-287.504027	322.591967	1141.423654	-59.461864	350.205276	1138.098015	-431.569704	356.909887	967.409777	-45.527968	387.150925	883.854632	-45.868510	372.867517	798.213846	-51.528176	422.942967	887.583730	-51.383370	382.027917	676.854071	-58.024795	366.963879	666.627296	-167.560446	282.996225	587.562297	-24.274625	255.917931	503.429740	-42.368429	192.583563	445.788076	-47.371281	285.318267	489.450291	-67.230332	121.791030	343.663207	-54.419589	174.590740	371.090764	-148.553290	51.295343	369.827224	-105.181621	256.378953	154.138247	-104.068967	171.025522	193.454549	-38.270591	433.526050	1039.012714	-434.854223	506.444480	999.259136	-441.369963	527.316287	1026.949815	-445.768995	556.701952	919.901005	-429.675041	619.039943	809.354672	-402.415998	615.118631	787.551910	-294.054815	322.552140	522.754679	-398.449403	348.791495	532.396109	-309.832248	241.295501	512.462158	-359.288794	432.684259	420.652282	-427.153922	539.852916	711.006172	-421.594206	490.629653	642.856904	-400.093905	414.430821	599.630792	-404.241138	505.442525	633.492717	-365.996363	518.752183	436.565969	-360.736499	-145.318539	939.252400	-229.231083	10.673844	80.049524	-427.170859	10.657870	80.536854	-28.474076	
